<svg width="35" height="26" viewBox="0 0 35 26" fill="none" xmlns="http://www.w3.org/2000/svg">
<path d="M32.5 0H2.5C1.83696 0 1.20107 0.270917 0.732233 0.753154C0.263392 1.23539 0 1.88944 0 2.57143V23.1429C0 23.8248 0.263392 24.4789 0.732233 24.9611C1.20107 25.4434 1.83696 25.7143 2.5 25.7143H32.5C33.163 25.7143 33.7989 25.4434 34.2678 24.9611C34.7366 24.4789 35 23.8248 35 23.1429V2.57143C35 1.88944 34.7366 1.23539 34.2678 0.753154C33.7989 0.270917 33.163 0 32.5 0ZM29.75 2.57143L17.5 11.2886L5.25 2.57143H29.75ZM2.5 23.1429V3.74143L16.7875 13.9114C16.9967 14.0607 17.2453 14.1407 17.5 14.1407C17.7547 14.1407 18.0033 14.0607 18.2125 13.9114L32.5 3.74143V23.1429H2.5Z" fill="black"/>
</svg>
